<svg width="725" height="124" viewBox="0 0 725 124" fill="none" xmlns="http://www.w3.org/2000/svg">
<path d="M9.375 31.8125H13V46.1875C14.2917 44.5625 15.7083 42.8958 17.25 41.1875C18.8333 39.4792 20.5625 37.9375 22.4375 36.5625C24.3542 35.1458 26.4583 34 28.75 33.125C31.0417 32.25 33.5417 31.8125 36.25 31.8125C40.0417 31.8125 43.4792 32.6042 46.5625 34.1875C49.6458 35.7708 52.2708 37.9167 54.4375 40.625C56.6458 43.3333 58.3333 46.5208 59.5 50.1875C60.7083 53.8125 61.3125 57.6875 61.3125 61.8125C61.3125 67.1042 60.5833 72 59.125 76.5C57.6667 80.9583 55.5833 84.8125 52.875 88.0625C50.1667 91.3125 46.875 93.8542 43 95.6875C39.125 97.4792 34.7917 98.375 30 98.375C28.25 98.375 26.6042 98.2708 25.0625 98.0625C23.5625 97.8958 22.125 97.625 20.75 97.25C19.4167 96.875 18.1042 96.3958 16.8125 95.8125C15.5625 95.2292 14.2917 94.5208 13 93.6875V123.938H0.25V35.375L9.375 31.8125ZM13 79.75C13 81.6667 13.4167 83.4792 14.25 85.1875C15.0833 86.8542 16.25 88.3333 17.75 89.625C19.25 90.875 21.0417 91.875 23.125 92.625C25.2083 93.3333 27.5 93.6875 30 93.6875C32.375 93.6875 34.6042 93.0833 36.6875 91.875C38.8125 90.6667 40.6458 88.9583 42.1875 86.75C43.7708 84.5 45 81.8333 45.875 78.75C46.7917 75.6667 47.25 72.25 47.25 68.5C47.25 63.7917 46.8333 59.6875 46 56.1875C45.1667 52.6458 44 49.7083 42.5 47.375C41.0417 45.0417 39.2917 43.2917 37.25 42.125C35.25 40.9583 33.0417 40.375 30.625 40.375C28.7917 40.375 27.0208 40.6667 25.3125 41.25C23.6458 41.7917 22.0625 42.5417 20.5625 43.5C19.0625 44.4583 17.6667 45.5625 16.375 46.8125C15.125 48.0625 14 49.375 13 50.75V79.75ZM106.5 98.375C102.167 98.375 98.0833 97.5625 94.25 95.9375C90.4583 94.3125 87.1458 92.1042 84.3125 89.3125C81.4792 86.5208 79.2292 83.25 77.5625 79.5C75.9375 75.7083 75.125 71.6875 75.125 67.4375C75.125 62.3125 75.875 57.5833 77.375 53.25C78.875 48.875 81 45.1042 83.75 41.9375C86.5 38.7708 89.7917 36.2917 93.625 34.5C97.5 32.7083 101.812 31.8125 106.562 31.8125C110.729 31.8125 114.562 32.5625 118.062 34.0625C121.562 35.5208 124.562 37.5 127.062 40C129.604 42.4583 131.562 45.3125 132.938 48.5625C134.354 51.8125 135.062 55.2083 135.062 58.75H87.375C87.375 63.0417 87.9167 67.0208 89 70.6875C90.125 74.3542 91.6875 77.5208 93.6875 80.1875C95.6875 82.8542 98.0625 84.9375 100.812 86.4375C103.562 87.9375 106.583 88.6875 109.875 88.6875C112.625 88.6875 115.271 88.25 117.812 87.375C120.354 86.4583 122.646 85.2708 124.688 83.8125C126.771 82.3542 128.542 80.6875 130 78.8125C131.458 76.9375 132.479 75 133.062 73L136.75 74.625C135.833 77.9167 134.354 81 132.312 83.875C130.271 86.75 127.875 89.2708 125.125 91.4375C122.417 93.5625 119.458 95.25 116.25 96.5C113.042 97.75 109.792 98.375 106.5 98.375ZM119.125 53.625C119.125 51.2083 118.688 48.9583 117.812 46.875C116.979 44.7917 115.812 43 114.312 41.5C112.812 39.9583 111.062 38.75 109.062 37.875C107.062 37 104.917 36.5625 102.625 36.5625C100.708 36.5625 98.875 37 97.125 37.875C95.375 38.7083 93.8125 39.8958 92.4375 41.4375C91.0625 42.9375 89.9167 44.7292 89 46.8125C88.125 48.8958 87.6042 51.1458 87.4375 53.5625L119.125 53.625ZM168.25 11.25H171.875V33H186.125V38.4375H171.875V83.5C171.875 84.4583 172.042 85.3542 172.375 86.1875C172.75 87.0208 173.229 87.75 173.812 88.375C174.438 89 175.167 89.5 176 89.875C176.833 90.2083 177.75 90.375 178.75 90.375C180.167 90.375 181.458 90.0208 182.625 89.3125C183.792 88.6042 184.812 87.7292 185.688 86.6875L188.875 88.8125C187.125 91.7708 184.854 94.1042 182.062 95.8125C179.271 97.5208 175.812 98.375 171.688 98.375C169.562 98.375 167.708 98 166.125 97.25C164.542 96.5417 163.229 95.5417 162.188 94.25C161.188 92.9167 160.438 91.3542 159.938 89.5625C159.438 87.7292 159.188 85.7083 159.188 83.5V38.4375H148.062V36.0625L159.188 33V14.8125L168.25 11.25ZM245.5 97C243.833 96.1667 242.417 95 241.25 93.5C240.125 91.9583 239.562 90.2083 239.562 88.25C238.062 89.375 236.583 90.5417 235.125 91.75C233.708 92.9583 232.146 94.0625 230.438 95.0625C228.771 96.0208 226.896 96.8125 224.812 97.4375C222.771 98.0625 220.396 98.375 217.688 98.375C215.188 98.375 212.917 97.9583 210.875 97.125C208.875 96.3333 207.167 95.2292 205.75 93.8125C204.375 92.3958 203.292 90.7083 202.5 88.75C201.75 86.7917 201.375 84.6875 201.375 82.4375C201.375 79.6875 201.917 77.2083 203 75C204.083 72.7917 205.562 70.8333 207.438 69.125C209.354 67.375 211.562 65.8333 214.062 64.5C216.562 63.125 219.229 61.9167 222.062 60.875C224.896 59.7917 227.812 58.8333 230.812 58C233.812 57.1667 236.729 56.3958 239.562 55.6875V51.6875C239.562 48.7708 239.354 46.3125 238.938 44.3125C238.521 42.3125 237.875 40.7083 237 39.5C236.125 38.25 235 37.375 233.625 36.875C232.292 36.3333 230.688 36.0625 228.812 36.0625C227.021 36.0625 225.375 36.4167 223.875 37.125C222.375 37.8333 221.042 38.7917 219.875 40C218.75 41.1667 217.812 42.5625 217.062 44.1875C216.354 45.7708 215.875 47.4583 215.625 49.25H204C204.333 46.5 205.271 44.0417 206.812 41.875C208.396 39.7083 210.375 37.8958 212.75 36.4375C215.125 34.9375 217.812 33.7917 220.812 33C223.854 32.2083 227 31.8125 230.25 31.8125C234.417 31.8125 237.917 32.2292 240.75 33.0625C243.583 33.8542 245.854 34.9792 247.562 36.4375C249.271 37.8958 250.479 39.6875 251.188 41.8125C251.938 43.8958 252.312 46.2083 252.312 48.75V88.25C252.312 90.2083 252.875 91.9583 254 93.5C255.167 95 256.583 96.1667 258.25 97H245.5ZM239.562 59.75C237.729 60.3333 235.833 61 233.875 61.75C231.917 62.5 230 63.3542 228.125 64.3125C226.25 65.2292 224.458 66.2292 222.75 67.3125C221.042 68.3958 219.542 69.5625 218.25 70.8125C216.958 72.0625 215.938 73.375 215.188 74.75C214.438 76.125 214.062 77.5625 214.062 79.0625C214.062 80.6458 214.354 82.1458 214.938 83.5625C215.521 84.9375 216.292 86.1667 217.25 87.25C218.208 88.2917 219.312 89.125 220.562 89.75C221.812 90.3333 223.104 90.625 224.438 90.625C225.854 90.625 227.208 90.4375 228.5 90.0625C229.792 89.6875 231.042 89.1875 232.25 88.5625C233.458 87.8958 234.667 87.1458 235.875 86.3125C237.083 85.4792 238.312 84.5833 239.562 83.625V59.75ZM285.75 97H273V4L282.062 0.375H285.75V97ZM350.188 51C349.729 49.3333 349.104 47.6458 348.312 45.9375C347.521 44.2292 346.5 42.6875 345.25 41.3125C344.042 39.8958 342.604 38.75 340.938 37.875C339.271 37 337.312 36.5625 335.062 36.5625C332.188 36.5625 329.604 37.1458 327.312 38.3125C325.021 39.4792 323.083 41.0625 321.5 43.0625C319.917 45.0625 318.708 47.3958 317.875 50.0625C317.042 52.7292 316.625 55.5625 316.625 58.5625C316.625 62.6458 317.146 66.5208 318.188 70.1875C319.271 73.8125 320.771 77 322.688 79.75C324.646 82.5 326.979 84.6875 329.688 86.3125C332.438 87.8958 335.5 88.6875 338.875 88.6875C341.833 88.6875 344.396 88.2292 346.562 87.3125C348.771 86.3542 350.667 85.0833 352.25 83.5C353.875 81.9167 355.271 80.0833 356.438 78C357.604 75.875 358.646 73.6458 359.562 71.3125L363.375 72.875C362.292 76.875 360.833 80.4583 359 83.625C357.167 86.7917 355 89.4792 352.5 91.6875C350.042 93.8542 347.25 95.5208 344.125 96.6875C341.042 97.8125 337.688 98.375 334.062 98.375C329.854 98.375 325.917 97.5625 322.25 95.9375C318.583 94.2708 315.396 92 312.688 89.125C309.979 86.25 307.833 82.8958 306.25 79.0625C304.667 75.2292 303.875 71.125 303.875 66.75C303.875 63.5417 304.271 60.4583 305.062 57.5C305.854 54.5 306.958 51.7083 308.375 49.125C309.833 46.5417 311.562 44.1875 313.562 42.0625C315.604 39.9375 317.854 38.125 320.312 36.625C322.771 35.0833 325.396 33.8958 328.188 33.0625C331.021 32.2292 333.958 31.8125 337 31.8125C339.542 31.8125 341.979 32.1042 344.312 32.6875C346.646 33.2708 348.792 34.1042 350.75 35.1875C352.708 36.2292 354.438 37.5417 355.938 39.125C357.438 40.6667 358.604 42.3958 359.438 44.3125L350.188 51ZM410.938 98.375C406.021 98.375 401.5 97.5208 397.375 95.8125C393.25 94.1042 389.688 91.7917 386.688 88.875C383.688 85.9167 381.333 82.4792 379.625 78.5625C377.958 74.6042 377.125 70.375 377.125 65.875C377.125 61.1667 377.958 56.75 379.625 52.625C381.333 48.4583 383.688 44.8333 386.688 41.75C389.688 38.6667 393.25 36.25 397.375 34.5C401.5 32.7083 406.021 31.8125 410.938 31.8125C415.812 31.8125 420.292 32.625 424.375 34.25C428.5 35.875 432.062 38.1042 435.062 40.9375C438.062 43.7708 440.396 47.1042 442.062 50.9375C443.771 54.7292 444.625 58.8125 444.625 63.1875C444.625 68.0208 443.771 72.5833 442.062 76.875C440.396 81.125 438.062 84.8542 435.062 88.0625C432.062 91.2292 428.5 93.75 424.375 95.625C420.292 97.4583 415.812 98.375 410.938 98.375ZM413.375 93.6875C415.875 93.6875 418.167 93.0417 420.25 91.75C422.333 90.4583 424.125 88.7292 425.625 86.5625C427.125 84.3542 428.292 81.8125 429.125 78.9375C429.958 76.0625 430.375 73.0208 430.375 69.8125C430.375 65.1875 429.979 60.8542 429.188 56.8125C428.396 52.7708 427.104 49.25 425.312 46.25C423.521 43.25 421.188 40.8958 418.312 39.1875C415.438 37.4375 411.938 36.5625 407.812 36.5625C405.688 36.5625 403.625 37.1875 401.625 38.4375C399.625 39.6458 397.854 41.3125 396.312 43.4375C394.812 45.5625 393.604 48.0625 392.688 50.9375C391.771 53.7708 391.312 56.7917 391.312 60C391.312 64.6667 391.792 69.0417 392.75 73.125C393.75 77.2083 395.188 80.7708 397.062 83.8125C398.979 86.8542 401.292 89.2708 404 91.0625C406.75 92.8125 409.875 93.6875 413.375 93.6875ZM471.812 31.8125H473.75L475.438 44.875C476.438 42.9583 477.688 41.2083 479.188 39.625C480.688 38.0417 482.333 36.6667 484.125 35.5C485.958 34.3333 487.875 33.4375 489.875 32.8125C491.917 32.1458 493.979 31.8125 496.062 31.8125C497.938 31.8125 499.771 32.0625 501.562 32.5625C503.396 33.0625 505.104 33.8542 506.688 34.9375L502.688 45.625C501.854 44.7083 500.979 43.9792 500.062 43.4375C499.146 42.8542 498.208 42.4167 497.25 42.125C496.292 41.7917 495.312 41.5833 494.312 41.5C493.312 41.4167 492.312 41.375 491.312 41.375C489.729 41.375 488.167 41.6042 486.625 42.0625C485.125 42.5208 483.688 43.2083 482.312 44.125C480.938 45 479.667 46.1458 478.5 47.5625C477.333 48.9375 476.312 50.5625 475.438 52.4375V97H462.75V35.3125L471.812 31.8125ZM527.25 31.8125H530.875V44.75C534.75 40.4167 538.771 37.1875 542.938 35.0625C547.104 32.8958 551.333 31.8125 555.625 31.8125C557.875 31.8125 559.958 32.3125 561.875 33.3125C563.833 34.3125 565.542 35.6875 567 37.4375C568.458 39.1875 569.604 41.25 570.438 43.625C571.271 45.9583 571.688 48.4583 571.688 51.125V97H559V53.3125C559 51.1875 558.75 49.3333 558.25 47.75C557.75 46.125 557.042 44.7708 556.125 43.6875C555.208 42.6042 554.125 41.7917 552.875 41.25C551.667 40.6667 550.312 40.375 548.812 40.375C547.479 40.375 546.062 40.6042 544.562 41.0625C543.062 41.5208 541.521 42.1667 539.938 43C538.396 43.7917 536.854 44.75 535.312 45.875C533.771 47 532.292 48.25 530.875 49.625V97H518.125V35.375L527.25 31.8125ZM621.25 98.375C616.917 98.375 612.833 97.5625 609 95.9375C605.208 94.3125 601.896 92.1042 599.062 89.3125C596.229 86.5208 593.979 83.25 592.312 79.5C590.688 75.7083 589.875 71.6875 589.875 67.4375C589.875 62.3125 590.625 57.5833 592.125 53.25C593.625 48.875 595.75 45.1042 598.5 41.9375C601.25 38.7708 604.542 36.2917 608.375 34.5C612.25 32.7083 616.562 31.8125 621.312 31.8125C625.479 31.8125 629.312 32.5625 632.812 34.0625C636.312 35.5208 639.312 37.5 641.812 40C644.354 42.4583 646.312 45.3125 647.688 48.5625C649.104 51.8125 649.812 55.2083 649.812 58.75H602.125C602.125 63.0417 602.667 67.0208 603.75 70.6875C604.875 74.3542 606.438 77.5208 608.438 80.1875C610.438 82.8542 612.812 84.9375 615.562 86.4375C618.312 87.9375 621.333 88.6875 624.625 88.6875C627.375 88.6875 630.021 88.25 632.562 87.375C635.104 86.4583 637.396 85.2708 639.438 83.8125C641.521 82.3542 643.292 80.6875 644.75 78.8125C646.208 76.9375 647.229 75 647.812 73L651.5 74.625C650.583 77.9167 649.104 81 647.062 83.875C645.021 86.75 642.625 89.2708 639.875 91.4375C637.167 93.5625 634.208 95.25 631 96.5C627.792 97.75 624.542 98.375 621.25 98.375ZM633.875 53.625C633.875 51.2083 633.438 48.9583 632.562 46.875C631.729 44.7917 630.562 43 629.062 41.5C627.562 39.9583 625.812 38.75 623.812 37.875C621.812 37 619.667 36.5625 617.375 36.5625C615.458 36.5625 613.625 37 611.875 37.875C610.125 38.7083 608.562 39.8958 607.188 41.4375C605.812 42.9375 604.667 44.7292 603.75 46.8125C602.875 48.8958 602.354 51.1458 602.188 53.5625L633.875 53.625ZM678.688 31.8125H680.625L682.312 44.875C683.312 42.9583 684.562 41.2083 686.062 39.625C687.562 38.0417 689.208 36.6667 691 35.5C692.833 34.3333 694.75 33.4375 696.75 32.8125C698.792 32.1458 700.854 31.8125 702.938 31.8125C704.812 31.8125 706.646 32.0625 708.438 32.5625C710.271 33.0625 711.979 33.8542 713.562 34.9375L709.562 45.625C708.729 44.7083 707.854 43.9792 706.938 43.4375C706.021 42.8542 705.083 42.4167 704.125 42.125C703.167 41.7917 702.188 41.5833 701.188 41.5C700.188 41.4167 699.188 41.375 698.188 41.375C696.604 41.375 695.042 41.6042 693.5 42.0625C692 42.5208 690.562 43.2083 689.188 44.125C687.812 45 686.542 46.1458 685.375 47.5625C684.208 48.9375 683.188 50.5625 682.312 52.4375V97H669.625V35.3125L678.688 31.8125ZM717.562 85.75C718.479 85.75 719.354 85.9375 720.188 86.3125C721.021 86.6458 721.75 87.1042 722.375 87.6875C723 88.2708 723.479 88.9792 723.812 89.8125C724.188 90.6042 724.375 91.4375 724.375 92.3125C724.375 93.2708 724.188 94.1458 723.812 94.9375C723.479 95.7292 723 96.4167 722.375 97C721.75 97.625 721.021 98.1042 720.188 98.4375C719.354 98.7708 718.479 98.9375 717.562 98.9375C716.604 98.9375 715.708 98.7708 714.875 98.4375C714.042 98.1042 713.312 97.625 712.688 97C712.062 96.4167 711.562 95.7292 711.188 94.9375C710.854 94.1458 710.688 93.2708 710.688 92.3125C710.688 91.4375 710.854 90.6042 711.188 89.8125C711.562 88.9792 712.062 88.2708 712.688 87.6875C713.312 87.1042 714.042 86.6458 714.875 86.3125C715.708 85.9375 716.604 85.75 717.562 85.75Z" fill="#0B1215"/>
</svg>
