<svg width="787" height="128" viewBox="0 0 787 128" fill="none" xmlns="http://www.w3.org/2000/svg">
<path d="M13.56 127.88C3.576 124.168 1.144 120.968 1.144 118.28C1.144 115.592 2.296 113.032 3.192 111.368C18.552 82.952 29.56 60.168 36.856 42.632C39.672 35.848 40.824 30.088 40.824 27.4C40.824 20.744 36.344 18.696 30.84 18.696C22.52 18.696 10.872 22.28 0.632 28.424L0.12 27.272C10.36 20.36 21.88 16.264 31.736 16.264C39.416 16.264 48.376 19.592 48.376 30.472C48.376 37.384 40.184 67.08 24.952 98.568L25.464 99.08C49.272 55.048 62.584 24.072 83.704 22.408C91.256 22.28 102.392 27.4 102.392 43.912C102.392 56.328 97.784 67.208 90.872 75.784C97.528 72.968 103.544 69.512 109.688 65.416L119.288 59.016L121.208 60.04L110.712 67.208C103.8 71.944 96.376 75.656 88.312 78.728C78.584 89.352 65.656 95.624 55.416 95.624C48.248 95.624 41.208 92.424 38.776 86.152L39.16 85.512C50.168 85.512 59.768 84.616 68.6 82.824C78.584 71.048 86.264 50.44 86.264 35.464C86.264 31.624 85.368 27.272 82.68 24.456C62.968 26.12 43 69.128 13.56 127.88ZM53.112 92.296C57.72 92.296 62.328 89.608 66.552 85.128C59.128 86.664 51.32 87.56 43 87.944C45.176 90.632 47.992 92.296 53.112 92.296ZM134.986 82.184C127.818 82.184 124.106 77.832 124.106 72.072C124.106 66.568 125.77 60.68 128.586 55.048C127.69 55.56 126.794 56.2 125.898 56.84L115.274 64.008L114.25 62.344L124.746 55.304C126.794 53.896 128.842 52.488 130.634 51.208C138.57 37.896 152.394 26.76 163.146 26.76C168.906 26.76 171.85 29.32 171.85 34.056C171.85 43.656 158.154 52.36 144.074 56.712C142.154 64.392 141.898 71.688 142.922 76.296C147.914 75.912 155.722 71.688 165.194 65.416L175.946 58.376L176.842 60.04L166.346 67.208C149.706 78.6 141.514 82.184 134.986 82.184ZM165.066 29.576C154.314 33.8 147.914 43.784 144.842 54.024C155.082 49.032 163.53 39.688 165.066 29.576ZM185.363 84.872C181.523 84.872 178.963 82.952 178.963 78.984C178.963 73.864 184.467 61.832 189.971 51.208C187.539 52.872 184.723 54.664 181.523 56.84L170.899 64.008L169.875 62.344L180.371 55.304C184.851 52.232 188.819 49.672 192.019 47.496C193.683 44.296 195.347 41.48 196.883 39.048C191.123 40.072 186.899 40.84 184.723 40.84C183.827 39.816 183.571 38.792 183.443 37.64C186.387 37.64 191.763 37 198.547 36.104C205.843 23.304 214.419 19.08 221.715 19.336L224.147 20.616C222.099 23.944 219.283 28.68 216.211 34.184C221.587 33.8 227.091 33.416 232.211 33.416C232.723 34.184 232.595 34.824 232.723 35.848C226.323 35.848 220.307 36.232 214.931 36.744C208.019 49.544 200.467 65.288 197.523 75.272C199.443 75.272 204.307 74.504 218.515 65.288L229.139 58.376L229.907 60.04L219.539 67.208C197.267 82.568 192.531 84.872 185.363 84.872ZM272.533 80.904C266.901 80.904 264.085 79.24 264.085 72.328C264.085 69.512 265.109 65.288 267.541 59.656C256.533 74.12 248.469 79.112 243.093 79.112C239.893 79.112 237.461 76.424 237.461 71.816C237.461 63.496 240.405 56.072 244.757 49.8C242.069 51.848 238.741 54.152 234.773 56.84L224.149 64.008L223.125 62.344L233.621 55.304C240.277 50.824 245.141 47.368 248.853 44.552C256.277 36.36 265.749 31.368 271.637 31.368C274.965 31.368 278.421 33.16 279.317 37.256C280.213 35.976 280.981 34.568 281.877 33.16C285.205 31.368 293.653 30.856 296.213 33.928C294.421 39.56 290.837 44.296 283.797 53.768C278.805 62.216 277.909 70.664 277.269 76.808C281.365 76.424 286.997 72.968 298.901 65.288L309.525 58.376L310.421 60.04L299.925 67.208C285.461 77.064 279.189 80.904 272.533 80.904ZM252.181 70.792C257.429 69.512 267.413 56.072 274.325 45.96C275.093 44.68 275.861 43.144 276.757 41.736C277.013 40.968 277.141 40.2 277.141 39.688C277.141 36.488 274.837 33.8 270.357 33.416C255.765 37.768 249.877 63.624 252.181 70.792ZM327.052 82.824C321.42 82.824 318.732 80.264 318.732 74.12C318.732 68.232 321.036 59.656 324.62 50.44C321.42 52.616 318.22 54.792 315.148 56.84L304.524 64.008L303.5 62.344L313.996 55.304C318.092 52.488 322.188 49.928 326.028 47.24C334.348 27.4 348.172 5.51199 357.772 0.519997C363.148 0.519997 372.364 3.976 372.364 12.936C372.364 22.152 360.972 29.832 344.332 40.712C337.164 56.072 332.556 71.944 334.604 77.704C339.34 77.704 350.604 72.2 360.844 65.416L371.596 58.376L372.62 59.912L361.996 67.208C344.076 79.496 335.116 82.824 327.052 82.824ZM367.628 7.688C360.588 11.912 352.524 24.2 345.996 37.256C358.796 28.936 369.164 21.256 369.164 12.68C369.164 10.376 368.524 8.584 367.628 7.688ZM470.615 67.208C461.399 73.608 429.783 95.368 415.831 95.368C405.335 95.368 399.063 89.224 399.063 76.296C399.063 43.272 433.879 12.68 458.455 12.68C464.983 13.96 472.535 18.184 472.535 24.84C472.535 30.856 468.055 35.976 460.631 40.2L460.119 39.432C463.447 36.104 465.367 32.648 465.367 26.504C465.367 19.208 461.143 14.6 455.895 14.6C436.311 22.92 416.343 50.952 416.343 74.504C416.343 81.8 417.879 86.152 421.463 89.352C435.287 87.304 459.479 72.2 469.591 65.416L478.807 59.272L479.703 60.936L470.615 67.208ZM498.186 86.792C490.506 86.792 485.386 81.8 485.386 72.712C485.386 65.416 487.818 58.632 491.53 52.872C489.866 54.152 488.074 55.432 485.898 56.84L475.274 64.008L474.25 62.344L484.746 55.304C488.97 52.488 492.426 50.056 495.114 48.008C502.41 39.432 512.01 34.056 518.282 34.056C525.066 34.056 529.29 39.56 529.29 49.544C529.29 55.048 527.242 64.392 524.81 68.616C524.426 69.64 523.786 70.664 522.89 71.816C525.578 70.792 529.034 68.744 534.154 65.416L544.906 58.376L545.93 59.912L535.434 67.08C529.162 71.304 524.298 73.864 520.33 75.016C513.034 82.952 505.61 86.792 498.186 86.792ZM504.586 82.952C508.426 82.056 512.138 79.496 515.722 75.528C511.626 75.144 509.066 72.456 509.066 68.36C509.066 62.216 514.186 58.248 518.922 58.248C521.866 58.248 523.658 59.528 524.682 61.32C525.834 57.864 526.474 53.896 526.474 49.928C526.474 45.192 525.45 40.968 523.402 38.536C513.546 38.536 501.514 56.968 501.514 71.56C501.514 78.088 502.666 80.776 504.586 82.952ZM551.931 86.92C547.835 86.92 545.531 85.256 545.531 81.288C545.531 71.176 571.515 53.128 571.515 47.496C570.491 46.984 568.827 46.344 564.731 45.576C561.531 49.032 556.667 52.744 550.523 56.84L539.899 64.008L538.875 62.344L549.371 55.304C555.259 51.336 559.227 47.624 561.275 45.064C557.563 44.296 555.387 42.888 555.387 40.072C555.387 36.36 558.843 32.136 564.091 32.136C567.803 32.136 569.339 34.312 569.339 36.872C569.339 38.92 568.443 41.096 566.779 43.272C580.475 45.704 586.875 46.088 586.875 50.312C586.875 54.28 568.571 69.256 564.859 77.448C568.187 76.552 577.787 72.2 588.027 65.416L598.907 58.248L599.931 59.784L589.179 67.208C569.979 80.52 558.203 86.92 551.931 86.92ZM618.478 88.712C613.614 88.328 609.39 86.792 605.55 83.848C608.622 77.064 610.926 70.536 612.846 64.392C615.79 55.048 616.814 51.208 616.814 49.288C614.766 50.184 611.182 52.232 604.398 56.84L593.774 64.008L592.75 62.344L603.246 55.304C618.222 45.192 623.214 41.352 629.87 41.352C632.302 41.352 633.582 42.632 633.582 44.552C633.582 47.624 631.662 53.896 627.694 64.776C627.054 66.44 626.414 68.104 625.774 69.896C642.286 41.864 652.782 35.208 660.59 35.208C664.43 35.208 666.99 36.616 666.99 40.328C666.99 42.632 665.198 47.24 660.462 56.84C657.262 63.368 655.726 67.976 655.086 71.304C656.494 71.304 661.998 67.592 665.582 65.288L676.078 58.376L676.974 60.04L666.478 67.208C652.526 76.808 649.966 78.088 644.846 78.088C641.774 78.088 639.854 76.296 639.854 73.608C639.854 70.152 642.286 64.776 645.87 57.48C650.222 48.392 650.99 45.448 651.118 43.4C642.798 48.776 631.022 63.112 618.478 88.712ZM690.736 82.184C683.568 82.184 679.856 77.832 679.856 72.072C679.856 66.568 681.52 60.68 684.336 55.048C683.44 55.56 682.544 56.2 681.648 56.84L671.024 64.008L670 62.344L680.496 55.304C682.544 53.896 684.592 52.488 686.384 51.208C694.32 37.896 708.144 26.76 718.896 26.76C724.656 26.76 727.6 29.32 727.6 34.056C727.6 43.656 713.904 52.36 699.824 56.712C697.904 64.392 697.648 71.688 698.672 76.296C703.664 75.912 711.472 71.688 720.944 65.416L731.696 58.376L732.592 60.04L722.096 67.208C705.456 78.6 697.264 82.184 690.736 82.184ZM720.816 29.576C710.064 33.8 703.664 43.784 700.592 54.024C710.832 49.032 719.28 39.688 720.816 29.576ZM738.681 86.92C734.585 86.92 732.281 85.256 732.281 81.288C732.281 71.176 758.265 53.128 758.265 47.496C757.241 46.984 755.577 46.344 751.481 45.576C748.281 49.032 743.417 52.744 737.273 56.84L726.649 64.008L725.625 62.344L736.121 55.304C742.009 51.336 745.977 47.624 748.025 45.064C744.313 44.296 742.137 42.888 742.137 40.072C742.137 36.36 745.593 32.136 750.841 32.136C754.553 32.136 756.089 34.312 756.089 36.872C756.089 38.92 755.193 41.096 753.529 43.272C767.225 45.704 773.625 46.088 773.625 50.312C773.625 54.28 755.321 69.256 751.609 77.448C754.937 76.552 764.537 72.2 774.777 65.416L785.657 58.248L786.681 59.784L775.929 67.208C756.729 80.52 744.953 86.92 738.681 86.92Z" fill="#0B1215"/>
</svg>
